<svg width="575" height="263" viewBox="0 0 575 263" fill="none" xmlns="http://www.w3.org/2000/svg">
    <path
        d="M309.999 35.9372C309.999 30.8495 305.875 26.7251 300.787 26.7251H143.674C138.587 26.7251 134.462 30.8495 134.462 35.9372C134.462 41.0249 138.587 45.1492 143.674 45.1492H204.77C208.462 45.1492 211 50.2426 211 53.9342C211 57.1526 208.834 61.0001 205.616 61.0001H125.995C119.92 61.0001 114.995 65.9249 114.995 72.0001C114.995 78.0752 119.92 83.0001 125.995 83.0001H143.701C149.701 83.0001 153.545 90.3153 152.062 96.1283C151.121 99.8128 148.046 103 144.243 103H93.1855C78.7236 103 67 114.724 67 129.186C67 143.647 78.7236 155.371 93.1855 155.371H96.5837C98.5183 155.371 99.9337 157.2 99.9337 159.134C99.9337 161.117 98.4865 163 96.5034 163H81.7412C69.3148 163 59.2412 173.074 59.2412 185.5C59.2412 191.718 52.9841 205.621 46.7659 205.621H21.6846C10.2581 205.621 0.995117 214.884 0.995117 226.311C0.995117 237.737 10.2581 247 21.6846 247L548.19 247C560.34 247 570.19 237.15 570.19 225C570.19 212.85 560.34 203 548.19 203H504.057C502.069 203 500.73 200.488 500.73 198.5C500.73 194.358 497.372 191 493.23 191H479.822C477.001 191 474.943 188.321 474.943 185.5C474.943 180.542 478.314 175 483.272 175H504.557C513.32 175 520.423 167.897 520.423 159.134C520.423 150.372 513.32 143.269 504.557 143.269H392.764C386.331 143.269 382 135.619 382 129.186C382 114.724 370.276 103 355.815 103H322.757C318.954 103 315.879 99.8128 314.939 96.1283C313.455 90.3153 317.3 83.0001 323.299 83.0001H439.995C446.07 83.0001 450.995 78.0752 450.995 72.0001C450.995 65.9249 446.07 61.0001 439.995 61.0001H350.384C347.166 61.0001 345 57.1526 345 53.9342C345 46.7545 339.18 40.9342 332 40.9342H313.809C311.532 40.9342 309.999 38.2145 309.999 35.9372Z"
        fill="#EDF1F5" />
    <path
        d="M116.995 27.0001C121.966 27.0001 125.995 31.0295 125.995 36.0001C125.995 40.9706 121.966 45.0001 116.995 45.0001C112.025 45.0001 107.995 40.9706 107.995 36.0001C107.995 31.0295 112.025 27.0001 116.995 27.0001Z"
        fill="#EDF1F5" />
    <path
        d="M555 135C566.046 135 575 143.954 575 155C575 166.046 566.046 175 555 175H549C537.954 175 529 166.046 529 155C529 143.954 537.954 135 549 135H555Z"
        fill="#EDF1F5" />
    <path d="M302 72L302 112C302 122.493 310.507 131 321 131V131" stroke="#C6D0DB"
        stroke-width="1.5" stroke-dasharray="3 3" />
    <path
        d="M426.696 173.007L426.696 198.971C426.696 209.464 435.202 217.971 445.696 217.971V217.971"
        stroke="#C6D0DB" stroke-width="1.5" stroke-dasharray="3 3" />
    <path
        d="M223.716 147.324L184.306 147.324C173.812 147.324 165.306 138.818 165.306 128.324V128.324"
        stroke="#C6D0DB" stroke-width="1.5" stroke-dasharray="3 3" />
    <rect width="295" height="10" rx="5" transform="matrix(-1 0 0 1 401.5 253)" fill="#613E2E" />
    <rect width="458" height="12" rx="6" transform="matrix(-1 0 0 1 493.995 247)" fill="#CCA08A" />
    <rect opacity="0.8" width="214" height="8" rx="4" transform="matrix(-1 0 0 1 490 249)"
        fill="#F0E2DC" />
    <rect opacity="0.8" width="10.325" height="12" transform="matrix(-1 0 0 1 196.475 247)"
        fill="#8F5F47" />
    <rect opacity="0.7" width="4.425" height="12" transform="matrix(-1 0 0 1 175.825 247)"
        fill="white" />
    <rect opacity="0.7" width="4.425" height="12" transform="matrix(-1 0 0 1 124 247)" fill="white" />
    <rect opacity="0.8" width="10.325" height="12" transform="matrix(-1 0 0 1 116.825 247)"
        fill="#8F5F47" />
    <rect opacity="0.8" width="25.075" height="12" transform="matrix(-1 0 0 1 156.65 247)"
        fill="#8F5F47" />
    <rect x="156" y="33.9341" width="4" height="4" fill="#C6D0DB" />
    <rect x="200.705" y="80.4766" width="4" height="4" fill="#C6D0DB" />
    <rect x="148" y="33.9341" width="4" height="4" fill="#C6D0DB" />
    <rect x="192.705" y="80.4766" width="4" height="4" fill="#C6D0DB" />
    <rect x="345" y="221" width="4" height="4" fill="#C6D0DB" />
    <rect x="345" y="213" width="4" height="4" fill="#FFAD80" />
    <rect x="79" y="178" width="4" height="4" fill="#FFAD80" />
    <rect x="337" y="213" width="4" height="4" fill="#C6D0DB" />
    <rect x="71" y="178" width="4" height="4" fill="#C6D0DB" />
    <rect x="345" y="205" width="4" height="4" fill="#C6D0DB" />
    <rect x="188" y="33.9341" width="4" height="4" fill="#C6D0DB" />
    <rect x="200.705" y="90.4766" width="4" height="4" fill="#FFAD80" />
    <rect x="172" y="33.9341" width="4" height="4" fill="#FFAD80" />
    <rect x="164" y="33.9341" width="4" height="4" fill="#C6D0DB" />
    <rect x="63" y="240" width="4" height="4" fill="#FDFF8B" />
    <rect x="55" y="240" width="4" height="4" fill="white" />
    <rect x="71" y="240" width="4" height="4" fill="white" />
    <rect width="4" height="4" transform="matrix(1 0 0 -1 542 157)" fill="#C6D0DB" />
    <rect width="4" height="4" transform="matrix(1 0 0 -1 526.465 217)" fill="#C6D0DB" />
    <rect width="4" height="4" transform="matrix(1 0 0 -1 548 228.931)" fill="#FFAD80" />
    <rect width="4" height="4" transform="matrix(1 0 0 -1 498.842 236.225)" fill="#FFAD80" />
    <rect width="4" height="4" transform="matrix(1 0 0 -1 558 157)" fill="#FFAD80" />
    <rect width="4" height="4" transform="matrix(1 0 0 -1 550 157)" fill="#C6D0DB" />
    <path d="M260.995 56L291.995 56C297.518 56 301.995 60.4772 301.995 66L301.995 78"
        stroke="#C6D0DB" stroke-width="1.5" stroke-dasharray="3 3" />
    <path d="M181.003 175.417L178.059 168.391L188.284 164.106L191.228 171.132L181.003 175.417Z"
        fill="#DB9E7F" />
    <path d="M324.189 175.287L327.246 168.787L336.222 173.007L333.165 179.508L324.189 175.287Z"
        fill="#DB9E7F" />
    <path
        d="M298.407 177.64C296.875 171.903 291.883 167.117 284.812 167.027L228.401 166.31C224.475 166.26 221.016 167.67 218.392 169.955C216.619 171.142 215.14 172.817 214.181 174.897L205.511 193.699L194.759 169.864C194.305 168.858 193.121 168.409 192.114 168.864L177.488 175.461C176.481 175.915 176.033 177.1 176.487 178.107L195.721 220.748C196.153 222.704 197.07 224.54 198.403 226.067C200.009 228.175 202.368 229.525 204.913 229.902C210.288 231.066 215.94 228.396 218.339 223.194L224.915 208.934C227.443 215.287 228.307 222.199 227.399 229.011L225.001 247H285.001L281.581 226.97C280.269 219.286 281.368 211.525 284.532 204.665L294.921 227.194C297.343 232.446 303.081 235.117 308.503 233.867C311.778 233.527 314.788 231.503 316.24 228.286L337.589 180.955C337.817 180.451 337.593 179.859 337.089 179.632L321.48 172.591C320.977 172.364 320.384 172.588 320.157 173.091L308.41 199.133L299.079 178.897C298.877 178.46 298.653 178.041 298.407 177.64Z"
        fill="#BAD7DD" />
    <rect opacity="0.5" x="235.768" y="184.819" width="46.3825" height="7.0784" rx="3.5392"
        transform="rotate(114.476 235.768 184.819)" fill="#A0C1C8" />
    <rect opacity="0.5" x="194.207" y="168.435" width="29.4737" height="3.87445" rx="1.93722"
        transform="rotate(65.8106 194.207 168.435)" fill="#A0C1C8" />
    <rect opacity="0.5" x="295.886" y="171.856" width="29.4737" height="6.12053" rx="3.06027"
        transform="rotate(65.3385 295.886 171.856)" fill="#A0C1C8" />
    <rect x="252.639" y="177.475" width="4.35434" height="29.9281" fill="#A1BFC6" />
    <path
        d="M318.813 176.153L320.206 173.101C320.435 172.599 321.028 172.377 321.53 172.606L337.028 179.675C337.53 179.904 337.752 180.498 337.522 181L336.13 184.052L318.813 176.153Z"
        fill="#A1BFC6" />
    <path
        d="M195.752 172.2L194.697 169.908C194.235 168.905 193.044 168.46 192.038 168.915L177.556 175.46C176.55 175.915 176.108 177.097 176.57 178.101L177.625 180.393L195.752 172.2Z"
        fill="#A1BFC6" />
    <rect x="315.005" y="184.538" width="4.35434" height="19.1223"
        transform="rotate(-65.4803 315.005 184.538)" fill="#A1BFC6" />
    <rect width="4.52341" height="19.9849"
        transform="matrix(-0.418171 -0.908368 -0.91125 0.411855 199.738 180.898)" fill="#A1BFC6" />
    <rect x="311.203" y="192.956" width="4.35434" height="19.0973"
        transform="rotate(-65.4803 311.203 192.956)" fill="#A1BFC6" />
    <rect width="4.52341" height="19.9587"
        transform="matrix(-0.418171 -0.908368 -0.91125 0.411855 203.718 189.628)" fill="#A1BFC6" />
    <path
        d="M225.912 166.412L232.79 165.943L253.269 205.944C254.006 207.383 256.056 207.399 256.815 205.972L277.719 166.698L287.117 167.089L282.688 190.903C282.019 194.5 282.349 198.211 283.643 201.633L284.802 204.699L286.219 246.999H224.224L225.099 209.354L227.183 203.041C228.012 200.529 228.334 197.877 228.131 195.239L225.912 166.412Z"
        fill="#0B5B74" />
    <path opacity="0.5"
        d="M239.833 227.694L228.993 166.214L225.897 166.417L228.169 195.267C228.383 197.991 228.037 200.73 227.152 203.316L225.1 209.308L224.204 247H238.256L239.833 227.694Z"
        fill="#034458" />
    <ellipse cx="287.268" cy="139.939" rx="5.5442" ry="8.31629" fill="#A1A6AF" />
    <ellipse cx="285.605" cy="139.939" rx="5.5442" ry="8.31629" fill="#333B42" />
    <path
        d="M229.811 167.606C229.436 166.825 229.686 165.888 230.4 165.397C231.273 164.797 232.476 165.102 232.958 166.046L253.26 205.761C253.598 206.422 254.278 206.838 255.02 206.838C255.752 206.838 256.423 206.434 256.766 205.787L277.662 166.395C278.088 165.592 279.108 165.323 279.875 165.81C280.544 166.236 280.787 167.097 280.438 167.809L259.527 210.575C259.348 211.085 259.022 211.539 258.581 211.876L258.479 211.954C258.111 212.235 257.685 212.429 257.231 212.521L256.414 212.688C255.588 212.856 254.738 212.868 253.908 212.721L252.722 212.512C252.233 212.426 251.769 212.211 251.386 211.894C251.046 211.615 250.779 211.262 250.599 210.87L229.811 167.606Z"
        fill="#B78582" />
    <path d="M235.98 172.028L274.495 172.449L265.483 188.942L245.467 190.242L235.98 172.028Z"
        fill="url(#paint0_linear_875_273141)" />
    <path
        d="M257.199 179.849C244.199 180.702 228.769 168.88 227.384 158.368C225.999 147.856 226.611 131.387 226.611 131.387L266.498 111L288.38 124.697C289.765 127.14 288.38 143.491 288.38 143.491C288.38 143.491 288.612 177.787 257.199 179.849Z"
        fill="#FFD3C1" />
    <path
        d="M253.495 116.958C251.995 121.485 248.495 127.92 245.995 127.421C243.495 126.923 241.495 126.425 241.495 126.425C238.476 126.425 235.178 134.293 233.568 138.134C233.312 138.745 233.098 139.254 232.935 139.614C228.5 149.403 234.862 166.618 236.539 169.682C237.889 172.148 239.622 174.15 241.571 175.775C232.684 170.997 226.572 162.566 225.63 154.237C224.201 141.604 225.63 121.313 225.63 121.313L239.019 98.3042L251.548 102.411L265.495 108.986L253.495 116.958Z"
        fill="#DB9E7F" />
    <path
        d="M230.441 139.384C230.219 137.61 230.441 134.117 226.56 134.117L221.847 143.265C222.771 144.282 225.007 146.148 226.56 145.483C228.5 144.651 230.718 141.602 230.441 139.384Z"
        fill="black" />
    <path
        d="M256.171 162.447C256.171 162.447 259.637 164.097 263.514 163.736C267.39 163.375 269.626 161.194 269.626 161.194"
        stroke="#EDAD8B" stroke-width="2" />
    <ellipse cx="247.628" cy="153.799" rx="3.60373" ry="3.32652" fill="#EDAD8B" />
    <ellipse cx="277.012" cy="149.918" rx="3.60373" ry="3.32652" fill="#EDAD8B" />
    <path
        d="M260.554 151.811C260.554 151.811 260.07 149.637 263.058 149.251C266.045 148.864 266.33 151.064 266.33 151.064"
        stroke="#E3A887" />
    <path
        d="M229.531 141.937C230.02 144.337 228.713 146.63 226.613 147.057C224.512 147.485 222.414 145.885 221.925 143.485C221.437 141.085 222.743 138.792 224.843 138.365C226.944 137.937 229.043 139.537 229.531 141.937Z"
        fill="#EFC6B0" />
    <path
        d="M251.616 143.509C250.862 143.642 250.143 143.138 250.011 142.384L249.722 140.746C249.589 139.992 250.093 139.274 250.847 139.141C251.601 139.008 252.319 139.511 252.452 140.265L252.741 141.903C252.873 142.657 252.37 143.376 251.616 143.509Z"
        fill="black" />
    <path
        d="M270.396 142.411C269.638 142.52 268.936 141.993 268.827 141.236L268.592 139.589C268.483 138.831 269.01 138.129 269.768 138.021C270.525 137.912 271.228 138.439 271.336 139.197L271.571 140.843C271.68 141.601 271.153 142.303 270.396 142.411Z"
        fill="black" />
    <path
        d="M247.097 169.195C246.048 168.976 245.02 169.648 244.801 170.698C244.582 171.747 245.255 172.775 246.304 172.994L249.343 173.628C250.392 173.847 251.42 173.175 251.639 172.125C251.858 171.076 251.186 170.048 250.136 169.829L247.097 169.195Z"
        fill="#6C6363" />
    <path
        d="M245.132 169.951C244.975 170.167 244.859 170.419 244.801 170.698C244.582 171.747 245.255 172.775 246.304 172.994L249.343 173.628C249.837 173.731 250.326 173.637 250.728 173.399C250.885 173.183 251.001 172.931 251.059 172.652C251.278 171.603 250.605 170.575 249.556 170.356L246.517 169.722C246.023 169.619 245.534 169.713 245.132 169.951Z"
        fill="#312D2D" />
    <path
        d="M225.173 147.701V150.637C225.173 154.853 226.515 158.96 229.005 162.362V162.362C231.893 166.309 236.135 169.051 240.92 170.063L247.905 171.541"
        stroke="#545151" stroke-width="2" />
    <path
        d="M166.614 154.143C166.42 153.978 166.137 153.973 165.937 154.13C165.886 154.17 165.842 154.22 165.809 154.275L165.671 154.505C165.188 155.308 165.33 156.339 166.013 156.981L171.768 162.393C171.484 162.415 171.203 162.439 170.926 162.467C169.399 162.619 167.862 162.177 166.594 161.312C166.333 161.133 166.054 160.949 165.757 160.76C159.28 156.636 152.023 154.263 151.291 155.698C149.812 158.26 152.78 162.779 159.257 166.903C161.084 168.066 162.621 168.764 163.904 169.134C166.36 170.044 170.331 170.513 174.811 170.513C182.267 170.513 188.294 167.197 188.294 164.729C188.294 162.419 183.009 162.287 176.215 162.28L166.614 154.143Z"
        fill="#DB9E7F" />
    <path
        d="M167.422 153.951C166.91 153.62 166.232 153.724 165.843 154.194C165.419 154.705 165.491 155.463 166.002 155.887L171.698 160.603C171.364 160.627 171.035 160.654 170.711 160.684C169.31 160.816 167.901 160.437 166.704 159.697C166.411 159.516 166.096 159.33 165.757 159.136C159.28 155.444 151.99 154.351 151.257 155.637C150.524 156.922 152.78 160.944 159.257 164.636C160.342 165.255 161.326 165.727 162.214 166.077C162.522 166.199 162.82 166.344 163.114 166.495C165.448 167.691 169.812 168.496 174.811 168.496C182.267 168.496 188.311 166.705 188.311 164.496C188.311 162.579 183.759 160.977 177.683 160.587C177.662 160.572 177.641 160.558 177.62 160.544L167.422 153.951Z"
        fill="#FFD3C1" />
    <path
        d="M347.014 155.748C347.181 155.556 347.46 155.508 347.681 155.634C347.738 155.666 347.789 155.708 347.83 155.758L348.001 155.964C348.6 156.685 348.614 157.726 348.036 158.464L343.163 164.682C343.448 164.66 343.729 164.642 344.007 164.628C345.539 164.547 346.992 163.878 348.115 162.832C348.346 162.616 348.594 162.393 348.859 162.161C354.64 157.106 361.456 153.666 362.397 154.974C364.245 157.284 361.992 162.198 356.211 167.253C354.581 168.678 353.167 169.6 351.954 170.159C349.664 171.429 345.809 172.492 341.38 173.168C334.009 174.293 327.551 171.923 327.179 169.484C326.83 167.2 332.035 166.272 338.75 165.24L347.014 155.748Z"
        fill="#DB9E7F" />
    <path
        d="M346.186 155.68C346.642 155.276 347.329 155.277 347.784 155.682C348.28 156.124 348.324 156.884 347.882 157.38L342.963 162.901C343.297 162.874 343.626 162.851 343.95 162.833C345.356 162.752 346.691 162.165 347.763 161.253C348.025 161.03 348.309 160.797 348.614 160.555C354.46 155.928 361.502 153.748 362.421 154.908C363.339 156.068 361.716 160.384 355.87 165.012C354.89 165.788 353.989 166.402 353.164 166.883C352.878 167.049 352.605 167.237 352.337 167.431C350.21 168.966 346.017 170.42 341.076 171.174C333.705 172.299 327.46 171.44 327.127 169.256C326.837 167.361 331.096 165.09 337.044 163.788C337.062 163.771 337.081 163.753 337.1 163.736L346.186 155.68Z"
        fill="#FFD3C1" />
    <path
        d="M238.726 100.283C237.567 98.059 238.718 95.3298 241.118 94.6057L244.848 93.481C259.08 89.1886 274.519 93.1432 284.936 103.749L289.488 108.385C291.325 110.254 292.354 112.771 292.354 115.392L292.354 129.72C292.354 130.049 292.313 130.376 292.233 130.695L290.465 137.729C290.178 138.872 288.495 138.664 288.495 137.485L288.495 134.502C288.495 132.723 287.321 131.158 285.613 130.661L250.635 120.478C249.588 120.173 248.71 119.453 248.206 118.485L238.726 100.283Z"
        fill="#804831" />
    <path
        d="M238.491 100.057C237.458 97.9556 234.85 97.1864 232.843 98.391L231.697 99.0787C229.567 100.357 227.561 101.83 225.705 103.481L222.612 106.23C220.617 108.003 219.414 110.499 219.27 113.164L218.495 127.5L218.495 142L219.241 150.205C219.39 151.843 220.645 153.164 222.273 153.397C222.693 153.457 223.096 153.212 223.236 152.812L229.82 134.001C229.936 133.669 230.096 133.353 230.295 133.062L237.275 122.873C238.275 121.413 240.167 120.863 241.793 121.56C244.956 122.914 248.098 119.604 246.58 116.516L238.491 100.057Z"
        fill="#804831" />
    <path
        d="M261.927 96.0587C266.369 96.0587 270.616 96.9471 274.517 98.5655C269.761 95.9526 264.361 94.4766 258.634 94.4766C239.542 94.4766 224.065 110.886 224.065 131.129C224.065 133.38 224.256 135.583 224.623 137.721H227.678C227.466 136.083 227.357 134.411 227.357 132.711C227.357 112.469 242.835 96.0587 261.927 96.0587Z"
        fill="#333B42" />
    <path
        d="M271.533 97.113C268.32 96.0671 264.908 95.5042 261.372 95.5042C242.28 95.5042 226.803 111.914 226.803 132.157C226.803 133.856 226.912 135.529 227.123 137.167H224.532C224.225 135.203 224.065 133.186 224.065 131.129C224.065 110.886 239.542 94.4766 258.634 94.4766C263.194 94.4766 267.547 95.4125 271.533 97.113Z"
        fill="#A1A6AF" />
    <ellipse cx="226.837" cy="140.493" rx="5.5442" ry="8.31629" fill="#333B42" />
    <ellipse cx="225.174" cy="140.493" rx="5.5442" ry="8.31629" fill="#AEB2BA" />
    <ellipse cx="224.619" cy="140.493" rx="3.32652" ry="4.98978" fill="#E7EBF2" />
    <path
        d="M126.18 144.326C125.698 142.267 122.766 142.267 122.285 144.326L102.479 229H101.685C100.353 229 99.1809 229.878 98.806 231.155L95.624 242H90.9951C89.3383 242 87.9951 243.343 87.9951 245V247H161.995V245C161.995 243.343 160.652 242 158.995 242H152.84L149.658 231.155C149.284 229.878 148.111 229 146.78 229H145.985L126.18 144.326Z"
        fill="#FF602E" />
    <path d="M130.548 163H117.92L115.339 174H133.113L130.548 163Z" fill="white" />
    <path d="M134.765 181H113.691L111.14 192H137.327L134.765 181Z" fill="white" />
    <path d="M108.796 202H139.695L142.253 213H106.214L108.796 202Z" fill="white" />
    <path opacity="0.2"
        d="M116.9 226.333C115.894 226.138 115.198 225.215 115.288 224.195L122.337 143.857L102.348 229L130.682 229L116.9 226.333Z"
        fill="#353C4E" />
    <path opacity="0.2"
        d="M99.6181 239.039C98.2789 238.953 97.2369 237.842 97.2369 236.5L95.6213 242L145.56 242L99.6181 239.039Z"
        fill="#353C4E" />
    <path opacity="0.2"
        d="M89.4713 246.013C88.6811 246.005 88.0341 245.383 87.9949 244.593V247L154.253 246.7L89.4713 246.013Z"
        fill="#353C4E" />
    <path
        d="M67.0611 199.826C66.5794 197.766 63.6479 197.766 63.1662 199.826L54.2151 238.094C53.209 238.353 52.3869 239.124 52.0843 240.155L50.8095 244.5H49.4951C48.1144 244.5 46.9951 245.619 46.9951 247H83.9951C83.9951 245.619 82.8758 244.5 81.4951 244.5H79.4178L78.143 240.155C77.8404 239.124 77.0183 238.353 76.0123 238.094L67.0611 199.826Z"
        fill="#FF602E" />
    <path d="M68.2718 205H61.9574L60.667 210.5H69.5539L68.2718 205Z" fill="white" />
    <path d="M70.3798 214H59.8432L58.5674 219.5H71.6611L70.3798 214Z" fill="white" />
    <path d="M57.3955 224.5H72.845L74.124 230H56.1045L57.3955 224.5Z" fill="white" />
    <path opacity="0.2"
        d="M62.3066 236.833C61.3118 236.64 60.6182 235.734 60.6919 234.724L63.2571 199.543L54.1714 238L68.3384 238L62.3066 236.833Z"
        fill="#353C4E" />
    <path opacity="0.2"
        d="M52.8064 243.02C52.1368 242.977 51.6158 242.421 51.6158 241.75L50.808 244.5L75.7773 244.5L52.8064 243.02Z"
        fill="#353C4E" />
    <path opacity="0.2"
        d="M47.7332 246.507C47.3381 246.502 47.0146 246.191 46.995 245.797V247L80.124 246.85L47.7332 246.507Z"
        fill="#353C4E" />
    <path
        d="M184.182 218.523C183.692 216.478 180.783 216.478 180.293 218.523L174.821 241.349C174.065 241.703 173.47 242.366 173.219 243.203L172.572 245.352H171.643C170.733 245.352 169.995 246.09 169.995 247H194.995C194.995 246.09 194.257 245.352 193.347 245.352H191.902L191.256 243.203C191.004 242.366 190.41 241.703 189.654 241.349L184.182 218.523Z"
        fill="#FF602E" />
    <path d="M184.371 219.31H180.105L179.233 222.936H185.237L184.371 219.31Z" fill="white" />
    <path d="M185.795 225.244H178.676L177.814 228.87H186.661L185.795 225.244Z" fill="white" />
    <path d="M177.022 232.166H187.461L188.325 235.792H176.15L177.022 232.166Z" fill="white" />
    <path opacity="0.2"
        d="M180.795 240.45C179.801 240.28 179.09 239.396 179.136 238.388L179.995 219.5L174.995 241L183.995 241L180.795 240.45Z"
        fill="#353C4E" />
    <path opacity="0.2"
        d="M173.902 244.375C173.461 244.347 173.117 243.981 173.117 243.539L172.572 245.352L189.443 245.352L173.902 244.375Z"
        fill="#353C4E" />
    <path opacity="0.2"
        d="M170.482 246.675C170.222 246.672 170.008 246.467 169.995 246.207V247L192.379 246.901L170.482 246.675Z"
        fill="#353C4E" />
    <path
        d="M382.924 176.547C382.442 174.487 379.511 174.487 379.029 176.547L365.538 234.226C364.243 234.264 363.114 235.131 362.747 236.38L360.673 243.451H401.28L399.206 236.38C398.839 235.131 397.71 234.264 396.415 234.226L382.924 176.547Z"
        fill="#FF602E" />
    <path
        d="M404.778 243.451C406.435 243.451 407.778 244.795 407.778 246.451V247H355.258V246.451C355.258 244.795 356.601 243.451 358.258 243.451H404.778Z"
        fill="#FF602E" />
    <path d="M385.459 187.383H376.496L374.665 195.19H387.279L385.459 187.383Z" fill="white" />
    <path d="M388.452 200.158H373.495L371.684 207.965H390.27L388.452 200.158Z" fill="white" />
    <path d="M370.021 215.062H391.951L393.766 222.869H368.188L370.021 215.062Z" fill="white" />
    <path opacity="0.2"
        d="M376.278 232.43C375.276 232.236 374.581 231.318 374.665 230.301L379.147 176.292L365.444 234.225L385.554 234.225L376.278 232.43Z"
        fill="#353C4E" />
    <path opacity="0.2"
        d="M363.507 241.35C362.557 241.289 361.817 240.5 361.817 239.548L360.671 243.451L396.113 243.451L363.507 241.35Z"
        fill="#353C4E" />
    <path opacity="0.2"
        d="M356.306 246.3C355.745 246.294 355.286 245.852 355.258 245.292V247L402.283 246.787L356.306 246.3Z"
        fill="#353C4E" />
    <path
        d="M456.692 136.526C456.353 134.252 453.074 134.252 452.735 136.526L439.272 226.949C437.975 227.095 436.904 228.072 436.659 229.38L434.41 241.425L431.995 241.425C430.338 241.425 428.995 242.768 428.995 244.425V247H481.515V244.425C481.515 242.768 480.171 241.425 478.515 241.425L475.017 241.425L472.768 229.38C472.523 228.072 471.452 227.095 470.155 226.949L456.692 136.526Z"
        fill="#FF602E" />
    <path d="M459.196 153.344H450.233L448.402 165.608H461.016L459.196 153.344Z" fill="white" />
    <path d="M462.188 173.413H447.232L445.421 185.677H464.007L462.188 173.413Z" fill="white" />
    <path d="M443.758 196.827H465.687L467.503 209.091H441.925L443.758 196.827Z" fill="white" />
    <path opacity="0.2"
        d="M449.75 224.03C448.871 223.763 448.287 222.931 448.334 222.014L452.77 136.203L439.181 226.931L459.291 226.931L449.75 224.03Z"
        fill="#353C4E" />
    <path opacity="0.2"
        d="M438.201 238.221C436.698 238.069 435.554 236.804 435.554 235.293L434.407 241.425L469.85 241.425L438.201 238.221Z"
        fill="#353C4E" />
    <path opacity="0.2"
        d="M430.612 245.909C429.734 245.895 429.023 245.194 428.995 244.317V246.999L476.02 246.666L430.612 245.909Z"
        fill="#353C4E" />
    <circle cx="254.816" cy="185.44" r="1.20469" fill="white" />
    <circle cx="254.816" cy="193.33" r="1.20469" fill="white" />
    <circle cx="321.794" cy="175.147" r="1" fill="white" />
    <circle cx="192.705" cy="171.095" r="0.974249" fill="white" />
    <circle cx="254.816" cy="201.219" r="1.20469" fill="white" />
    <g clip-path="url(#clip0_875_273141)">
        <path
            d="M428.347 159.078C430.737 159.078 432.739 158.266 432.86 157.205C432.504 156.209 432.116 155.121 431.735 154.053C431.471 154.814 430.01 155.354 428.347 155.354C426.684 155.354 425.223 154.814 424.959 154.053C424.578 155.121 424.19 156.209 423.835 157.205C423.956 158.266 425.957 159.078 428.347 159.078ZM428.347 152.373C429.471 152.373 430.514 152.025 430.82 151.484C430.399 150.302 430.038 149.287 429.809 148.648C429.657 148.221 428.968 148 428.347 148C427.726 148 427.037 148.221 426.885 148.648C426.657 149.287 426.295 150.302 425.874 151.484C426.18 152.025 427.224 152.373 428.347 152.373ZM437.127 160.066L433.372 158.552L433.805 159.759C433.783 161.038 431.301 162.058 428.347 162.058C425.394 162.058 422.91 161.039 422.889 159.759L423.322 158.552L419.567 160.066C418.514 160.49 418.469 161.275 419.469 161.81L426.531 165.597C427.529 166.132 429.164 166.132 430.163 165.597L437.226 161.81C438.225 161.275 438.18 160.49 437.127 160.066Z"
            fill="#C6D0DB" />
    </g>
    <g clip-path="url(#clip1_875_273141)">
        <path
            d="M173.69 117.006L171.963 115.468C171.463 115.023 171.463 114.294 171.963 113.849L173.69 112.31C174.19 111.865 174.057 111.451 173.394 111.386L171.104 111.169C170.442 111.107 170.084 110.536 170.313 109.903L171.528 106.52C171.756 105.885 171.477 105.655 170.909 106.006L168.208 107.676C167.64 108.03 166.905 107.836 166.577 107.25L165.599 105.504C165.27 104.916 164.727 104.914 164.392 105.496L163.483 107.076C163.146 107.661 162.375 107.909 161.77 107.632L160.17 106.898C159.562 106.618 159.097 106.94 159.133 107.614L159.219 109.229C159.256 109.903 158.758 110.596 158.115 110.77L156.57 111.184C155.928 111.358 155.81 111.864 156.31 112.309L158.037 113.848C158.537 114.293 158.537 115.022 158.037 115.467L156.31 117.006C155.81 117.451 155.942 117.883 156.603 117.963L158.698 118.217C159.359 118.297 159.727 118.887 159.516 119.528L158.442 122.786C158.231 123.427 158.532 123.675 159.11 123.341L161.573 121.915C162.151 121.581 162.929 121.765 163.302 122.323L164.324 123.862C164.696 124.421 165.255 124.391 165.564 123.794L166.463 122.061C166.773 121.463 167.515 121.219 168.111 121.518L169.845 122.385C170.443 122.682 170.902 122.375 170.866 121.703L170.779 120.086C170.744 119.412 171.24 118.721 171.885 118.547L173.428 118.131C174.072 117.957 174.19 117.451 173.69 117.006ZM166 118.662H164V116.662H166V118.662ZM166 115.662H164V110.662H166V115.662Z"
            fill="#C6D0DB" />
    </g>
    <g clip-path="url(#clip2_875_273141)">
        <path
            d="M238.795 58.6341V52.4341H234.995C233.895 52.4341 232.995 53.3341 232.995 54.4341V60.4341C232.995 61.5341 233.895 62.4341 234.995 62.4341H235.995V65.4341L238.995 62.4341H243.995C245.095 62.4341 245.995 61.5341 245.995 60.4341V58.6141C245.931 58.6281 245.863 58.6351 245.795 58.6351H238.795V58.6341ZM250.995 47.4341H241.995C240.895 47.4341 239.995 48.3341 239.995 49.4341V57.4341H246.995L249.995 60.4341V57.4341H250.995C252.095 57.4341 252.995 56.5351 252.995 55.4341V49.4341C252.995 48.3341 252.095 47.4341 250.995 47.4341Z"
            fill="#C6D0DB" />
    </g>
    <path
        d="M343.825 122.353C339.211 123.021 338.296 121.854 336.221 120.021C334.146 121.854 333.231 123.021 328.617 122.353C326.158 134.601 336.221 138.021 336.221 138.021C336.221 138.021 346.284 134.601 343.825 122.353ZM338.694 132.33L336.221 131.03L333.749 132.33L334.221 129.577L332.221 127.627L334.985 127.226L336.221 124.721L337.457 127.226L340.221 127.627L338.221 129.576L338.694 132.33Z"
        fill="#C6D0DB" />
    <path
        d="M102.511 132.801L93.6038 116.169C93.4798 115.954 93.2498 115.821 92.9998 115.821C92.7488 115.821 92.5188 115.954 92.3958 116.169L83.4898 132.801C83.3688 133.012 83.3708 133.272 83.4948 133.481C83.6198 133.692 83.8468 133.821 84.0928 133.821H101.907C102.152 133.821 102.381 133.692 102.505 133.481C102.629 133.272 102.631 133.012 102.511 132.801ZM93.9998 131.821H91.9998V129.821H93.9998V131.821ZM93.9998 128.321H91.9998V121.821H93.9998V128.321Z"
        fill="#C6D0DB" />
    <path
        d="M36.2183 225.03C34.6343 221.344 32.0863 218.54 30.7973 219.063C28.6083 219.954 32.1013 224.227 21.3503 228.596C20.4213 228.975 20.1863 230.484 20.5753 231.388C20.9633 232.29 22.2333 233.189 23.1623 232.812C23.3233 232.746 23.9133 232.556 23.9133 232.556C24.5763 233.447 25.2703 232.919 25.5173 233.484C25.8133 234.164 26.4563 235.642 26.6753 236.144C26.8943 236.646 27.3903 237.111 27.7503 236.974C28.1093 236.837 29.3323 236.372 29.8003 236.195C30.2683 236.017 30.3793 235.599 30.2363 235.271C30.0823 234.916 29.4503 234.812 29.2693 234.398C29.0893 233.986 28.5003 232.66 28.3313 232.242C28.1013 231.674 28.5903 231.211 29.3013 231.138C34.1953 230.626 35.1103 233.65 36.7763 232.972C38.0633 232.447 37.8013 228.713 36.2183 225.03ZM35.6673 231.006C35.3803 231.121 33.4543 229.604 32.2243 226.739C30.9933 223.876 31.1483 221.259 31.4343 221.142C31.7203 221.027 33.5993 222.859 34.8293 225.722C36.0603 228.585 35.9533 230.889 35.6673 231.006Z"
        fill="#C6D0DB" />
    <g clip-path="url(#clip3_875_273141)">
        <path
            d="M336.738 60.1561H330.325L327.938 53.4341L325.549 60.1561H319.137L324.369 64.1031L322.498 71.0321L327.938 66.8781L333.376 71.0321L331.507 64.1031L336.738 60.1561ZM327.938 64.9171L324.924 67.4171L326.167 63.8551L323.316 61.5551L326.838 61.6561L327.938 57.6161L329.037 61.6561L332.558 61.5551L329.707 63.8551L330.95 67.4171L327.938 64.9171Z"
            fill="#C6D0DB" />
    </g>
    <defs>
        <linearGradient id="paint0_linear_875_273141" x1="256.569" y1="172.449" x2="256.569"
            y2="192.125" gradientUnits="userSpaceOnUse">
            <stop stop-color="#7D9EA8" />
            <stop offset="1" stop-color="#BAD7DD" stop-opacity="0.16" />
        </linearGradient>
        <clipPath id="clip0_875_273141">
            <rect width="20" height="20" fill="white" transform="translate(418.347 147)" />
        </clipPath>
        <clipPath id="clip1_875_273141">
            <rect width="20" height="20" fill="white" transform="translate(155 104.662)" />
        </clipPath>
        <clipPath id="clip2_875_273141">
            <rect width="20" height="20" fill="white" transform="translate(232.995 46.4341)" />
        </clipPath>
        <clipPath id="clip3_875_273141">
            <rect width="20" height="20" fill="white" transform="translate(317.938 53.4341)" />
        </clipPath>
    </defs>
</svg>