<svg width="574" height="263" viewBox="0 0 574 263" fill="none" xmlns="http://www.w3.org/2000/svg">
<path d="M456.5 9C452.358 9 449 12.3579 449 16.5C449 20.6421 452.358 24 456.5 24H461.5C465.642 24 469 20.6421 469 16.5C469 12.3579 465.642 9 461.5 9H456.5Z" fill="#9ACBFF"/>
<path d="M265.001 16.7151C265.001 12.573 268.358 9.21509 272.501 9.21509H433.038C437.18 9.21509 440.538 12.573 440.538 16.7151C440.538 20.8572 437.18 24.2151 433.038 24.2151H370.23C366.538 24.2151 364 29.3084 364 33C364 35.4409 365.694 38 368.135 38H437.5C449.926 38 460 48.0736 460 60.5C460 72.9264 449.926 83 437.5 83H431.299C425.299 83 421.455 90.3152 422.938 96.1283C423.879 99.8127 426.954 103 430.757 103H485C497.703 103 508 113.297 508 126C508 138.703 497.703 149 485 149H480.244C477.223 149 475.066 151.98 475.066 155C475.066 158.882 477.749 163 481.632 163H493.259C505.685 163 515.759 173.074 515.759 185.5C515.759 191.718 522.016 205.621 528.234 205.621H553.315C564.742 205.621 574.005 214.884 574.005 226.31C574.005 237.737 564.742 247 553.315 247L26.8104 247C14.6601 247 4.81038 237.15 4.81038 225C4.81038 212.85 14.6601 203 26.8104 203H70.9431C72.9308 203 74.2703 200.488 74.2703 198.5C74.2703 194.358 77.6282 191 81.7703 191H95.1784C97.999 191 100.057 188.321 100.057 185.5C100.057 180.542 96.6863 175 91.7284 175H74.577C63.5313 175 54.577 166.046 54.577 155C54.577 143.954 63.5313 135 74.577 135H185.581C189.964 135 193 130.382 193 126C193 113.297 203.297 103 216 103H252.243C256.046 103 259.121 99.8127 260.061 96.1283C261.545 90.3153 257.7 83 251.701 83H227.5C215.074 83 205 72.9264 205 60.5C205 48.0736 215.074 38 227.5 38C229.163 38 230.308 36.2813 230.101 34.6312C230.034 34.0969 230 33.5525 230 33C230 25.8203 235.82 20 243 20H262.356C263.926 20 265.001 18.2851 265.001 16.7151Z" fill="#9ACBFF"/>
<path d="M20 135C8.95431 135 0 143.954 0 155C0 166.046 8.95431 175 20 175H26C37.0457 175 46 166.046 46 155C46 143.954 37.0457 135 26 135H20Z" fill="#9ACBFF"/>
<path d="M273 69L273 112C273 122.493 264.493 131 254 131V131" stroke="white" stroke-width="1.5" stroke-dasharray="3 3"/>
<path d="M354 69V134.22C354 141.83 360.17 148 367.78 148H374.34C378.327 148 381.56 144.767 381.56 140.78V140.78C381.56 136.792 384.793 133.559 388.78 133.559H407" stroke="white" stroke-width="1.5" stroke-dasharray="3 3"/>
<g opacity="0.5">
<path d="M35.5 0C29.1487 0 24 5.14873 24 11.5C24 17.8513 29.1487 23 35.5 23H69.5C75.8513 23 81 17.8513 81 11.5C81 5.14873 75.8513 0 69.5 0H35.5Z" fill="#9ACBFF"/>
<path d="M85 36C73.9543 36 65 44.9543 65 56C65 57.2379 65.1125 58.4495 65.3277 59.6251C65.7172 61.7526 64.2424 64 62.0796 64H13C7.47715 64 3 68.4771 3 74C3 79.5229 7.47715 84 13 84H20.4042C22.7147 84 24.2534 86.6181 24.048 88.9194C24.0162 89.2754 24 89.6358 24 90C24 96.6274 29.3726 102 36 102H75C81.6274 102 87 96.6274 87 90C87 89.6358 86.9838 89.2754 86.952 88.9194C86.7466 86.6181 88.2853 84 90.5958 84H114C117.976 84 121.41 81.6796 123.022 78.3192C123.639 77.0327 124.825 76 126.252 76H164C175.046 76 184 67.0457 184 56C184 44.9543 175.046 36 164 36H85Z" fill="#9ACBFF"/>
</g>
<rect x="173.5" y="253" width="295" height="10" rx="5" fill="#613E2E"/>
<rect x="81" y="247" width="436" height="12" rx="6" fill="#CCA08A"/>
<rect opacity="0.8" x="85" y="249" width="214" height="8" rx="4" fill="#F0E2DC"/>
<rect opacity="0.8" x="378.525" y="247" width="10.325" height="12" fill="#8F5F47"/>
<rect opacity="0.7" x="399.175" y="247" width="4.425" height="12" fill="white"/>
<rect opacity="0.7" x="451" y="247" width="4.425" height="12" fill="white"/>
<rect opacity="0.8" x="458.175" y="247" width="10.325" height="12" fill="#8F5F47"/>
<rect opacity="0.8" x="418.35" y="247" width="25.075" height="12" fill="#8F5F47"/>
<rect width="4" height="4" transform="matrix(-1 0 0 1 327 17)" fill="white"/>
<rect width="4" height="4" transform="matrix(-1 0 0 1 400.345 55.5195)" fill="white"/>
<rect width="4" height="4" transform="matrix(-1 0 0 1 335 17)" fill="white"/>
<rect width="4" height="4" transform="matrix(-1 0 0 1 408.345 55.5195)" fill="white"/>
<rect width="4" height="4" transform="matrix(-1 0 0 1 230 221)" fill="white"/>
<rect width="4" height="4" transform="matrix(-1 0 0 1 230 213)" fill="#FDFF8B"/>
<rect width="4" height="4" transform="matrix(-1 0 0 1 496 178)" fill="#FDFF8B"/>
<rect width="4" height="4" transform="matrix(-1 0 0 1 238 213)" fill="white"/>
<rect width="4" height="4" transform="matrix(-1 0 0 1 504 178)" fill="white"/>
<rect width="4" height="4" transform="matrix(-1 0 0 1 230 205)" fill="white"/>
<rect width="4" height="4" transform="matrix(-1 0 0 1 295 17)" fill="white"/>
<rect width="4" height="4" transform="matrix(-1 0 0 1 400.345 65.5195)" fill="#FDFF8B"/>
<rect width="4" height="4" transform="matrix(-1 0 0 1 311 17)" fill="#FDFF8B"/>
<rect width="4" height="4" transform="matrix(-1 0 0 1 319 17)" fill="white"/>
<path d="M546.447 220.106L540.447 217.106C540.166 216.965 539.834 216.965 539.552 217.106L533.922 219.921L528.316 218.052C528.01 217.95 527.676 218.001 527.415 218.19C527.154 218.378 527 218.68 527 219.001V232.002C527 232.381 527.214 232.727 527.553 232.896L533.553 235.896C533.694 235.966 533.847 236.002 534 236.002C534.153 236.002 534.307 235.967 534.447 235.896L540.077 233.082L545.683 234.951C545.988 235.051 546.323 235 546.584 234.812C546.845 234.624 546.999 234.322 546.999 234.002V221C547 220.621 546.786 220.275 546.447 220.106ZM535 221.619L539 219.619V231.382L535 233.382V221.619ZM529 220.388L533 221.721V233.382L529 231.382V220.388ZM545 232.615L541 231.281V219.619L545 221.619V232.615Z" fill="white"/>
<rect width="4" height="4" transform="matrix(-1 0 0 1 502 230)" fill="#FDFF8B"/>
<rect width="4" height="4" transform="matrix(-1 0 0 1 510 230)" fill="white"/>
<rect width="4" height="4" transform="matrix(-1 0 0 1 494 230)" fill="white"/>
<rect x="33" y="157" width="4" height="4" transform="rotate(180 33 157)" fill="white"/>
<rect x="103" y="211" width="4" height="4" transform="rotate(180 103 211)" fill="#FDFF8B"/>
<rect x="17" y="157" width="4" height="4" transform="rotate(180 17 157)" fill="#FDFF8B"/>
<rect x="25" y="157" width="4" height="4" transform="rotate(180 25 157)" fill="white"/>
<path d="M108 247V247C108 235.402 98.598 226 87 226L47 226" stroke="white" stroke-width="1.5" stroke-dasharray="3 3"/>
<path d="M395 247L395 244C395 227.984 407.984 215 424 215V215" stroke="white" stroke-width="1.5" stroke-dasharray="3 3"/>
<path d="M465 155L465 201C465 208.732 458.732 215 451 215V215" stroke="white" stroke-width="1.5" stroke-dasharray="3 3"/>
<path d="M465 175L465 160C465 145.088 452.912 133 438 133V133" stroke="white" stroke-width="1.5" stroke-dasharray="3 3"/>
<path d="M335 47.0545L283 47.0545C277.477 47.0545 273 51.5317 273 57.0545L273 65.1745" stroke="white" stroke-width="1.5" stroke-dasharray="3 3"/>
<path d="M319 47.0545L344 47.0545C349.523 47.0545 354 51.5317 354 57.0545L354 65.1745" stroke="white" stroke-width="1.5" stroke-dasharray="3 3"/>
<path d="M282 99.4135C282 94.0424 286.936 90.0284 292.195 91.1239L292.365 91.1593C293.442 91.3838 294.556 91.3737 295.629 91.1298C300.429 90.0388 305 93.6873 305 98.6099V101.79C305 107.429 300.429 112 294.79 112H292.315C286.618 112 282 107.382 282 101.685V99.4135Z" fill="#87100F"/>
<path d="M285 98.6025C285 94.1655 289.078 90.8496 293.422 91.7545L293.562 91.7837C294.452 91.9692 295.372 91.9609 296.259 91.7594C300.224 90.8581 304 93.8721 304 97.9386V100.566C304 105.224 300.224 109 295.566 109H293.521C288.815 109 285 105.185 285 100.479V98.6025Z" fill="#D02724"/>
<path d="M282.323 101.821C282.589 93.8284 292.103 89.8237 298.006 95.22L298.983 96.1134C299.975 97.0206 301.199 97.6359 302.518 97.8913L303.482 98.0777C308.811 99.1093 310.823 105.678 306.984 109.517C305.714 110.787 303.991 111.501 302.194 111.501H291.685C286.389 111.501 282.146 107.114 282.323 101.821Z" fill="#87100F"/>
<rect width="18" height="31" transform="matrix(-1 0 0 1 185 210)" fill="#A8A7A7"/>
<rect width="18" height="31" transform="matrix(-1 0 0 1 183 210)" fill="#BABDC5"/>
<path d="M198 246.455L185.143 241H167.286L153 246.455V247H198V246.455Z" fill="#A8A7A7"/>
<path d="M196 246.455L183.143 241H165.286L151 246.455V247H196V246.455Z" fill="#BABDC5"/>
<rect opacity="0.7" x="210" y="202" width="4" height="4" fill="white"/>
<path d="M235 149.439C235 144.348 231.176 140.07 226.117 139.501L121.43 127.729C115.569 127.07 110.414 131.6 110.314 137.497L109.172 204.831C109.078 210.419 113.582 215 119.171 215H225C230.523 215 235 210.523 235 205V149.439Z" fill="#9398A0"/>
<path d="M235 150.987C235 145.876 231.146 141.588 226.064 141.044L124.499 130.177C118.612 129.547 113.47 134.141 113.436 140.062L113.058 204.942C113.026 210.487 117.513 215 123.058 215H225C230.523 215 235 210.523 235 205V150.987Z" fill="#BABDC5"/>
<path d="M233 152.959C233 147.86 229.163 143.577 224.095 143.019L126.095 132.222C120.175 131.57 115 136.206 115 142.162V203C115 208.523 119.477 213 125 213H223C228.523 213 233 208.523 233 203V152.959Z" fill="white"/>
<rect width="99" height="4" transform="matrix(-1 0 0 1 268 243)" fill="#50545A"/>
<path d="M265 243C265 241.895 264.105 241 263 241H262C260.895 241 260 241.895 260 243H265Z" fill="#939EAE"/>
<path d="M256 243C256 241.895 255.105 241 254 241H253C251.895 241 251 241.895 251 243H256Z" fill="#939EAE"/>
<path d="M247 243C247 241.895 246.105 241 245 241H244C242.895 241 242 241.895 242 243H247Z" fill="#939EAE"/>
<path d="M238 243C238 241.895 237.105 241 236 241H235C233.895 241 233 241.895 233 243H238Z" fill="#939EAE"/>
<path d="M229 243C229 241.895 228.105 241 227 241H226C224.895 241 224 241.895 224 243H229Z" fill="#939EAE"/>
<path d="M220 243C220 241.895 219.105 241 218 241H217C215.895 241 215 241.895 215 243H220Z" fill="#939EAE"/>
<path d="M211 243C211 241.895 210.105 241 209 241H208C206.895 241 206 241.895 206 243H211Z" fill="#939EAE"/>
<path d="M202 243C202 241.895 201.105 241 200 241H199C197.895 241 197 241.895 197 243H202Z" fill="#939EAE"/>
<path d="M193 243C193 241.895 192.105 241 191 241H190C188.895 241 188 241.895 188 243H193Z" fill="#939EAE"/>
<path d="M184 243C184 241.895 183.105 241 182 241H181C179.895 241 179 241.895 179 243H184Z" fill="#939EAE"/>
<path d="M276.593 177.64C278.125 171.903 283.117 167.117 290.188 167.027L346.6 166.31C350.525 166.26 353.985 167.67 356.609 169.955C358.382 171.142 359.86 172.817 360.819 174.897L368.559 191.681L377.636 171.557C378.772 169.04 381.733 167.92 384.25 169.055L395.183 173.987C397.7 175.123 398.82 178.084 397.685 180.601L378.57 222.977C378.434 223.278 378.287 223.57 378.128 223.853C376.938 226.069 375.044 227.931 372.584 229.066C366.565 231.841 359.437 229.212 356.662 223.194L350.086 208.934C347.557 215.287 346.693 222.199 347.601 229.011L349.999 247H289.999L293.419 226.97C294.731 219.286 293.632 211.525 290.468 204.665L280.079 227.194C277.304 233.212 270.175 235.841 264.157 233.066C261.696 231.931 259.802 230.069 258.613 227.853C258.454 227.57 258.306 227.278 258.17 226.977L239.055 184.601C237.92 182.084 239.04 179.123 241.557 177.987L252.49 173.055C255.008 171.92 257.969 173.04 259.104 175.557L268.182 195.681L275.921 178.897C276.123 178.46 276.347 178.041 276.593 177.64Z" fill="#5D7495"/>
<path d="M253.414 174.063C254.153 173.715 254.471 172.834 254.123 172.095C253.428 170.617 251.666 169.982 250.188 170.677L240.342 175.307C238.864 176.002 238.229 177.764 238.924 179.242C239.272 179.981 240.153 180.299 240.892 179.951L253.414 174.063Z" fill="#E28A8A"/>
<path d="M395.702 176.132C396.456 176.448 397.322 176.093 397.638 175.34C398.269 173.833 397.56 172.1 396.053 171.468L386.019 167.263C384.512 166.631 382.779 167.341 382.148 168.847C381.832 169.601 382.187 170.467 382.94 170.783L395.702 176.132Z" fill="#E28A8A"/>
<ellipse cx="5.5442" cy="8.31629" rx="5.5442" ry="8.31629" transform="matrix(-1 0 0 1 293.276 131.622)" fill="#A1A6AF"/>
<ellipse cx="5.5442" cy="8.31629" rx="5.5442" ry="8.31629" transform="matrix(-1 0 0 1 294.939 131.622)" fill="#333B42"/>
<path d="M309.306 179.675L327.241 178.556L323.806 205.675H314.306L309.306 179.675Z" fill="#E28A8A"/>
<path d="M306.007 161.908C306.007 161.908 305.134 166.997 302.957 168.561C306.641 174.588 313.306 213.675 314.436 222.73C318.317 220.512 317.703 216.344 321.306 217.175C318.306 204.675 308.779 165.512 306.007 161.908Z" fill="url(#paint0_linear_875_273139)"/>
<path d="M334.56 160.8C334.56 160.8 335.391 164.127 338.441 166.067C332.342 172.166 315.941 237.297 314 246.999C309.5 246.999 309.267 245.613 304 246.999C306.883 234.359 330.679 164.681 334.56 160.8Z" fill="#DAE9F3"/>
<path d="M317.505 180.448C331.729 180.448 346.777 170.155 348.163 161.007C349.549 151.859 348.163 137.167 348.163 137.167L308.245 119.425L286.345 131.345C284.959 133.471 285.85 150.176 285.85 150.176C285.85 150.176 290.425 178.982 317.505 180.448Z" fill="#FFD3C1"/>
<path d="M307.414 121.773C309.302 124.977 312.39 130.217 321.5 134.999C332.588 140.821 340.5 140.999 340.5 140.999C340.408 143.587 340.879 144.795 342.064 146.869C346.5 154.631 340.138 168.28 338.461 170.709C334.057 177.086 325.579 179.554 318.811 180.483C334.514 179.282 346.795 170.036 348.163 161.007C349.549 151.859 348.163 137.167 348.163 137.167L308.965 119.745L307.466 119.889L306.587 120.412C306.845 120.808 307.114 121.265 307.414 121.773Z" fill="#DB9E7F"/>
<path d="M344.559 139.384C344.781 137.61 344.559 134.117 348.44 134.117L353.153 143.265C352.229 144.282 349.993 146.148 348.44 145.483C346.5 144.651 344.282 141.602 344.559 139.384Z" fill="black"/>
<path d="M318.644 164.414C318.644 164.414 315.925 162.183 312.496 161.857C309.066 161.532 306.742 163.285 306.742 163.285" stroke="#EDAD8B" stroke-width="2"/>
<path d="M314.446 151.811C314.446 151.811 314.93 149.637 311.942 149.251C308.955 148.864 308.67 151.064 308.67 151.064" stroke="#E3A887"/>
<path d="M345.469 141.937C344.98 144.337 346.287 146.63 348.387 147.057C350.488 147.485 352.586 145.885 353.075 143.485C353.563 141.085 352.257 138.792 350.157 138.365C348.056 137.937 345.958 139.536 345.469 141.937Z" fill="#EFC6B0"/>
<path d="M310.305 93.5759L299.434 98.6345C292.227 120.811 334.64 139.384 340.738 137.721C346.837 136.058 350.1 142.502 356.322 134.049C364.024 123.583 354.599 115.544 350.223 105.773C345.274 94.722 331.373 93.5759 324.72 90.8038C319.397 88.5861 312.892 91.7278 310.305 93.5759Z" fill="#87100F"/>
<path d="M299.123 99.7069C293.588 121.406 334.738 139.357 340.738 137.721C342.937 137.122 344.767 137.575 346.5 138.005C348.401 138.477 350.186 138.92 352.213 137.909C352.644 137.437 353.088 136.892 353.549 136.266C359.351 128.384 355.436 121.878 351.28 114.972C349.919 112.709 348.531 110.403 347.451 107.991C343.637 99.4746 334.507 96.8405 327.474 94.8116C325.381 94.2076 323.474 93.6573 321.947 93.0214C316.625 90.8037 310.12 93.9455 307.533 95.7935L299.123 99.7069Z" fill="#D02724"/>
<path d="M295.416 101.402C299.082 99.5211 301.144 104.692 301.717 107.513C305.154 110.803 308.415 114.564 307.957 120.205C307.499 125.846 296.213 135.307 287.621 132.486C279.028 129.665 282.24 125.376 279.376 120.205C276.511 115.034 290.833 103.752 295.416 101.402Z" fill="#D02724"/>
<path d="M408.386 154.143C408.58 153.978 408.863 153.973 409.063 154.13C409.114 154.17 409.158 154.219 409.191 154.275L409.329 154.505C409.812 155.308 409.669 156.339 408.987 156.981L403.232 162.393C403.516 162.415 403.797 162.439 404.074 162.467C405.601 162.618 407.138 162.177 408.405 161.312C408.667 161.133 408.946 160.949 409.243 160.76C415.72 156.636 422.976 154.263 423.709 155.698C425.188 158.26 422.22 162.778 415.743 166.903C413.916 168.066 412.379 168.764 411.096 169.134C408.64 170.044 404.669 170.513 400.188 170.513C392.732 170.513 386.706 167.197 386.706 164.729C386.706 162.419 391.991 162.287 398.785 162.279L408.386 154.143Z" fill="#DB9E7F"/>
<path d="M407.578 153.951C408.089 153.62 408.768 153.724 409.157 154.193C409.58 154.705 409.509 155.463 408.998 155.887L403.302 160.603C403.636 160.626 403.965 160.653 404.288 160.684C405.69 160.816 407.098 160.437 408.296 159.697C408.589 159.516 408.904 159.33 409.243 159.136C415.72 155.443 423.01 154.351 423.743 155.636C424.475 156.921 422.22 160.943 415.743 164.636C414.657 165.255 413.674 165.727 412.785 166.077C412.477 166.199 412.18 166.344 411.885 166.495C409.552 167.691 405.187 168.496 400.188 168.496C392.732 168.496 386.688 166.705 386.688 164.496C386.688 162.579 391.24 160.977 397.317 160.587C397.337 160.572 397.359 160.558 397.38 160.544L407.578 153.951Z" fill="#FFD3C1"/>
<path d="M227.986 155.748C227.819 155.556 227.54 155.508 227.318 155.633C227.262 155.666 227.211 155.708 227.17 155.758L226.998 155.964C226.4 156.685 226.385 157.726 226.964 158.464L231.836 164.682C231.552 164.66 231.271 164.642 230.993 164.627C229.46 164.547 228.007 163.878 226.885 162.832C226.653 162.616 226.406 162.393 226.14 162.161C220.36 157.106 213.544 153.666 212.603 154.974C210.755 157.284 213.007 162.198 218.788 167.253C220.418 168.678 221.833 169.6 223.046 170.159C225.336 171.429 229.19 172.492 233.62 173.168C240.991 174.293 247.449 171.923 247.821 169.484C248.17 167.2 242.965 166.272 236.249 165.24L227.986 155.748Z" fill="#DB9E7F"/>
<path d="M228.814 155.68C228.358 155.276 227.671 155.277 227.216 155.682C226.72 156.124 226.676 156.884 227.118 157.38L232.037 162.901C231.703 162.874 231.374 162.851 231.049 162.833C229.644 162.752 228.309 162.165 227.237 161.253C226.974 161.03 226.691 160.797 226.385 160.555C220.54 155.928 213.497 153.748 212.579 154.908C211.661 156.068 213.284 160.384 219.13 165.012C220.11 165.788 221.011 166.402 221.836 166.883C222.122 167.049 222.395 167.237 222.663 167.431C224.789 168.966 228.982 170.42 233.924 171.174C241.295 172.299 247.54 171.44 247.873 169.256C248.162 167.361 243.904 165.09 237.956 163.788C237.938 163.771 237.919 163.753 237.9 163.736L228.814 155.68Z" fill="#FFD3C1"/>
<path opacity="0.5" d="M152.852 163.67C152.933 162.431 154.021 161.504 155.256 161.62L200.043 165.822C201.024 165.914 201.754 166.77 201.69 167.753C201.624 168.765 200.745 169.527 199.734 169.45L154.882 166.01C153.679 165.917 152.774 164.874 152.852 163.67Z" fill="#D5DCE3"/>
<path opacity="0.5" d="M167.769 154.273C167.895 153.033 169.028 152.146 170.262 152.322L200.308 156.604C201.278 156.742 201.966 157.621 201.867 158.597C201.764 159.612 200.85 160.346 199.836 160.226L169.696 156.674C168.506 156.534 167.648 155.465 167.769 154.273Z" fill="#D5DCE3"/>
<path opacity="0.5" d="M153.008 182.411C153.031 181.17 154.073 180.193 155.313 180.251L200.248 182.34C201.233 182.385 202.002 183.206 201.984 184.191C201.966 185.205 201.123 186.008 200.11 185.978L155.146 184.653C153.94 184.618 152.986 183.618 153.008 182.411Z" fill="#D5DCE3"/>
<path opacity="0.5" d="M153.02 173.277C153.06 172.037 154.116 171.074 155.355 171.149L200.257 173.86C201.24 173.919 201.998 174.751 201.967 175.736C201.934 176.749 201.081 177.54 200.068 177.496L155.127 175.549C153.921 175.497 152.982 174.484 153.02 173.277Z" fill="#D5DCE3"/>
<path opacity="0.5" d="M153.001 191.568C153.005 190.327 154.033 189.334 155.274 189.374L200.235 190.799C201.219 190.83 202.001 191.639 201.997 192.625C201.994 193.638 201.164 194.454 200.15 194.439L155.171 193.778C153.965 193.76 152.997 192.775 153.001 191.568Z" fill="#D5DCE3"/>
<path opacity="0.5" d="M152.999 200.6C152.99 199.359 154.008 198.356 155.249 198.383L200.222 199.351C201.208 199.372 201.997 200.173 202.004 201.159C202.011 202.172 201.189 202.996 200.175 202.992L155.192 202.788C153.985 202.782 153.007 201.807 152.999 200.6Z" fill="#D5DCE3"/>
<path d="M178.322 159.001C169.307 159.001 162 166.307 162 175.321C162 184.336 169.307 191.642 178.322 191.642C187.333 191.642 194.642 184.336 194.642 175.321C194.642 166.307 187.333 159.001 178.322 159.001ZM165.4 175.321C165.4 168.186 171.183 162.401 178.32 162.401C181.429 162.401 184.28 163.501 186.509 165.33L168.329 183.51C166.5 181.279 165.4 178.43 165.4 175.321ZM178.32 188.239C175.212 188.239 172.361 187.141 170.134 185.312L188.314 167.133C190.142 169.364 191.242 172.211 191.242 175.321C191.242 182.456 185.455 188.239 178.32 188.239Z" fill="#F0C6CA"/>
<path opacity="0.5" d="M153.998 152.892C154.142 150.098 156.624 148.012 159.401 148.35L160.528 148.488C162.93 148.78 164.735 150.819 164.735 153.238C164.735 155.978 162.44 158.159 159.704 158.018L158.569 157.959C155.908 157.822 153.861 155.554 153.998 152.892Z" fill="#D5DCE3"/>
<path d="M352.343 114.537C348.779 108.528 354.928 101.118 361.891 100.544C368.363 100.01 376.615 100.808 377.058 107.287L377.668 116.218C378.104 122.603 372.781 127.892 366.399 127.416L364.91 127.305C360.624 126.986 356.85 124.362 355.058 120.455L352.343 114.537Z" fill="#87100F"/>
<path d="M351.962 113.026C348.628 107.406 354.379 100.476 360.892 99.9385C366.944 99.4393 374.662 100.186 375.076 106.245L375.647 114.598C376.054 120.57 371.076 125.517 365.107 125.072L363.715 124.968C359.706 124.669 356.176 122.215 354.5 118.561L351.962 113.026Z" fill="#D02724"/>
<path d="M350 111C368 136.5 380.555 118 375 105" stroke="#87100F" stroke-width="2"/>
<path d="M350.5 109C367 128 375 118.5 374.5 103" stroke="#87100F"/>
<path d="M307.937 215.5C307.715 216.363 306.932 217 306 217C304.895 217 304 216.105 304 215C304 213.895 304.895 213 306 213C306.932 213 307.715 213.637 307.937 214.5H326.063C326.285 213.637 327.068 213 328 213C329.105 213 330 213.895 330 215C330 216.105 329.105 217 328 217C327.068 217 326.285 216.363 326.063 215.5H307.937Z" fill="#D02724"/>
<path d="M307.732 228C307.387 228.598 306.74 229 306 229C304.895 229 304 228.105 304 227C304 225.895 304.895 225 306 225C307.105 225 308 225.895 308 227H326C326 225.895 326.895 225 328 225C329.105 225 330 225.895 330 227C330 228.105 329.105 229 328 229C327.26 229 326.613 228.598 326.268 228H307.732Z" fill="#D02724"/>
<g clip-path="url(#clip0_875_273139)">
<path d="M421.595 127.196L422.041 128.567C422.41 128.251 422.876 127.968 423.482 127.772C424.072 127.58 424.593 127.472 425.064 127.41L424.634 126.087C424.158 126.156 423.633 126.267 423.054 126.455C422.476 126.643 421.999 126.905 421.595 127.196ZM422.522 130.051L422.968 131.422C423.337 131.106 423.803 130.823 424.409 130.627C424.999 130.435 425.52 130.327 425.991 130.265L425.561 128.942C425.085 129.011 424.56 129.122 423.981 129.31C423.403 129.497 422.927 129.759 422.522 130.051ZM423.45 132.905L423.896 134.276C424.265 133.96 424.731 133.677 425.337 133.481C425.927 133.289 426.448 133.181 426.919 133.119L426.489 131.796C426.013 131.865 425.488 131.976 424.909 132.164C424.33 132.351 423.854 132.614 423.45 132.905ZM416.388 135.077L416.818 136.4C417.235 136.174 417.72 135.955 418.31 135.764C418.916 135.567 419.459 135.522 419.943 135.561L419.497 134.19C418.998 134.192 418.459 134.26 417.882 134.447C417.303 134.635 416.813 134.853 416.388 135.077ZM414.533 129.368L414.963 130.691C415.38 130.465 415.865 130.247 416.455 130.055C417.061 129.858 417.604 129.813 418.088 129.852L417.643 128.48C417.144 128.483 416.605 128.55 416.027 128.738C415.448 128.926 414.958 129.144 414.533 129.368ZM415.46 132.223L415.89 133.546C416.307 133.32 416.792 133.101 417.382 132.91C417.988 132.713 418.531 132.668 419.015 132.707L418.57 131.335C418.071 131.337 417.532 131.405 416.955 131.592C416.376 131.78 415.885 131.999 415.46 132.223ZM422.064 123.41C420.341 123.97 419.441 125.162 419.011 125.969C418.189 125.569 416.761 125.134 415.038 125.694C412.515 126.514 411.069 128.321 411.069 128.321L415.164 140.908C415.29 141.295 415.81 141.385 416.042 141.051C416.541 140.332 417.502 139.393 419.299 138.809C421.017 138.251 422.268 138.863 422.954 139.387C423.226 139.595 423.616 139.447 423.716 139.119C423.968 138.292 424.623 137.079 426.326 136.526C428.125 135.941 429.455 136.137 430.282 136.426C430.667 136.56 431.032 136.184 430.907 135.797L426.819 123.203C426.819 123.203 424.587 122.591 422.064 123.41ZM421.951 137.256C421.132 137.012 420.05 136.898 418.81 137.3C417.559 137.706 416.683 138.249 416.111 138.704L412.866 128.722C413.224 128.364 414.053 127.68 415.528 127.201C416.917 126.75 418.056 127.136 418.807 127.579L421.951 137.256ZM428.845 134.567C428.114 134.535 427.086 134.611 425.835 135.018C424.595 135.421 423.787 136.15 423.268 136.828L420.124 127.151C420.47 126.351 421.164 125.369 422.554 124.918C424.028 124.439 425.101 124.505 425.601 124.584L428.845 134.567Z" fill="white"/>
</g>
<path opacity="0.6" fill-rule="evenodd" clip-rule="evenodd" d="M322.423 159.018C316.254 151.484 317.879 146.081 320.706 143.236L328.967 144.702C327.784 145.892 325.52 150.81 328.975 155.031C331.922 158.629 332.735 162.138 332.225 165.179C331.734 168.106 330.054 170.374 328.409 171.674L328.368 171.706L328.326 171.738C327.646 172.246 326.718 173.332 326.459 174.673C326.236 175.829 326.789 177.477 327.096 178.583L325.786 179.012L323.776 179.562L321.699 180.025L319.38 180.395L318.758 180.438C318.71 180.365 317.473 177.499 318 173.693C318.612 170.523 320.916 168.473 322.728 167.099C323.096 166.797 324.08 165.42 324.287 164.19C324.478 163.046 324.289 161.297 322.423 159.018Z" fill="#6BB7FE"/>
<path opacity="0.6" fill-rule="evenodd" clip-rule="evenodd" d="M294.121 161.883C292.785 164.007 292.91 164.187 292.91 166.882L293.882 168.213L295.262 169.883L297.109 171.83L298.851 173.363C299.31 168.81 298.747 167.83 300.911 165.05C303.691 162.43 305.185 161.924 304.362 158.358C303.418 155.194 300.949 153.852 301.699 148.926C302.088 146.368 305.717 143.967 307.999 141.738L302.993 141.639L298.756 141.534C297.67 142.598 296.966 143.189 296.474 143.637C294.197 145.707 293.947 149.419 294.556 152.435C294.616 152.732 294.706 153.076 294.838 153.483C295.017 154.04 295.965 157.738 296.171 158.969C296.363 160.112 295.987 159.604 294.121 161.883Z" fill="#6BB7FE"/>
<path fill-rule="evenodd" clip-rule="evenodd" d="M39.444 225.361C38.562 220.435 36.59 218.982 35.541 218.982C33.904 218.982 33.484 220.199 30 220.24C26.516 220.199 26.096 218.982 24.459 218.982C23.41 218.982 21.437 220.435 20.555 225.361C20.052 228.173 19.506 232.371 20.807 232.875C22.426 233.502 22.975 231.934 24.753 230.609C26.558 229.266 27.424 228.95 30 228.95C32.576 228.95 33.442 229.266 35.247 230.609C37.025 231.933 37.574 233.502 39.193 232.875C40.494 232.371 39.948 228.174 39.444 225.361ZM26 226C24.895 226 24 225.104 24 224C24 222.895 24.895 222 26 222C27.105 222 28 222.895 28 224C28 225.104 27.104 226 26 226ZM33 226C32.447 226 32 225.553 32 225C32 224.447 32.447 224 33 224C33.553 224 34 224.447 34 225C34 225.553 33.553 226 33 226ZM35 224C34.447 224 34 223.553 34 223C34 222.447 34.447 222 35 222C35.553 222 36 222.447 36 223C36 223.553 35.553 224 35 224Z" fill="white"/>
<path d="M445 210.95V221.301C445 221.823 444.548 222.072 444 222.461C443.56 222.774 443 222.386 443 221.874C443 221.874 443 211.969 443 211.76C443 211.549 442.926 211.348 442.686 211.225C442.446 211.102 434.948 207.16 434.948 207.16C434.827 207.115 434.299 206.782 433.595 207.144C432.926 207.488 432.562 207.862 432.469 208.038L440.649 212.52C440.866 212.634 441 212.81 441 213.036V223.838C441 224.068 440.858 224.314 440.631 224.423C440.527 224.475 440.412 224.5 440.298 224.5C440.163 224.5 440.027 224.467 439.912 224.396C439.697 224.265 432.138 219.63 431.639 219.329C431.399 219.185 431.118 218.89 431.112 218.671L431 208.385C431 208.187 430.977 207.838 431.289 207.353C431.986 206.269 434.418 205.036 435.649 205.675L444.648 210.23C444.865 210.342 445 210.566 445 210.95Z" fill="white"/>
<g clip-path="url(#clip1_875_273139)">
<path d="M249.249 117.438L235.438 131.251C234.854 131.835 234.854 132.789 235.44 133.375L238.625 136.562C239.209 137.146 240.166 137.148 240.749 136.564L254.562 122.751C255.146 122.166 255.146 121.21 254.562 120.626L251.376 117.438C250.789 116.852 249.834 116.855 249.249 117.438ZM238.929 132.312L238.17 133.071L236.274 131.174L237.033 130.415L238.929 132.312ZM241.965 132.312L241.206 133.071L237.791 129.656L238.55 128.896L241.965 132.312ZM241.965 129.276L241.206 130.035L239.308 128.139L240.068 127.379L241.965 129.276ZM243.483 127.758L242.724 128.517L240.828 126.621L241.587 125.861L243.483 127.758ZM246.518 127.758L245.759 128.517L242.345 125.103L243.104 124.344L246.518 127.758ZM246.518 124.723L245.759 125.482L243.863 123.586L244.622 122.827L246.518 124.723ZM248.036 123.206L247.277 123.965L245.38 122.068L246.139 121.309L248.036 123.206ZM251.072 123.206L250.312 123.965L246.898 120.55L247.657 119.79L251.072 123.206ZM251.071 120.171L250.312 120.93L248.416 119.032L249.175 118.274L251.071 120.171Z" fill="white"/>
</g>
<path fill-rule="evenodd" clip-rule="evenodd" d="M245.501 56.5195H234.501C234.226 56.5195 234.001 56.7445 234.001 57.0195V58.0195C234.001 58.2955 234.226 58.5195 234.501 58.5195H245.501C245.777 58.5195 246.001 58.2955 246.001 58.0195V57.0195C246.001 56.7445 245.777 56.5195 245.501 56.5195ZM245.501 52.5195H234.501C234.226 52.5195 234.001 52.7445 234.001 53.0195V54.0195C234.001 54.2955 234.226 54.5195 234.501 54.5195H245.501C245.777 54.5195 246.001 54.2955 246.001 54.0195V53.0195C246.001 52.7445 245.777 52.5195 245.501 52.5195ZM240.501 60.5195H234.501C234.226 60.5195 234.001 60.7445 234.001 61.0195V62.0195C234.001 62.2955 234.226 62.5195 234.501 62.5195H240.501C240.777 62.5195 241.001 62.2955 241.001 62.0195V61.0195C241.001 60.7445 240.777 60.5195 240.501 60.5195ZM245.501 48.5195H234.501C234.226 48.5195 234.001 48.7445 234.001 49.0195V50.0195C234.001 50.2955 234.226 50.5195 234.501 50.5195H245.501C245.777 50.5195 246.001 50.2955 246.001 50.0195V49.0195C246.001 48.7445 245.777 48.5195 245.501 48.5195Z" fill="white"/>
<path d="M329.145 144.743C329.577 144.819 329.989 144.53 330.065 144.098C330.141 143.666 329.852 143.254 329.42 143.178L320.829 141.665C320.397 141.588 319.984 141.877 319.908 142.309C319.832 142.742 320.121 143.154 320.553 143.23L329.145 144.743Z" fill="black"/>
<path d="M308.042 141.719C308.504 141.726 308.885 141.358 308.893 140.895C308.9 140.433 308.531 140.052 308.069 140.044L299.003 139.899C298.541 139.892 298.16 140.261 298.153 140.723C298.145 141.186 298.514 141.567 298.977 141.574L308.042 141.719Z" fill="black"/>
<path opacity="0.7" d="M322.421 138.625C323.094 139.007 323.949 138.771 324.331 138.098C324.713 137.425 324.477 136.57 323.804 136.188L320.184 134.134C319.511 133.753 318.656 133.989 318.274 134.662C317.892 135.334 318.128 136.19 318.801 136.571L322.421 138.625Z" fill="#333B42"/>
<path opacity="0.7" d="M306.464 137.425C305.734 137.682 304.934 137.299 304.676 136.57C304.419 135.84 304.802 135.04 305.531 134.782L309.261 133.466C309.991 133.209 310.791 133.592 311.048 134.321C311.306 135.051 310.923 135.851 310.193 136.109L306.464 137.425Z" fill="#333B42"/>
<path d="M327.903 169.196C328.952 168.976 329.98 169.649 330.199 170.698C330.418 171.747 329.746 172.775 328.696 172.995L325.657 173.629C324.608 173.848 323.58 173.175 323.361 172.126C323.142 171.077 323.815 170.049 324.864 169.83L327.903 169.196Z" fill="#6C6363"/>
<path d="M329.868 169.952C330.026 170.168 330.141 170.42 330.199 170.698C330.418 171.747 329.745 172.776 328.696 172.995L325.657 173.629C325.164 173.732 324.675 173.638 324.272 173.4C324.115 173.184 324 172.932 323.942 172.653C323.722 171.604 324.395 170.576 325.444 170.357L328.484 169.723C328.977 169.619 329.466 169.714 329.868 169.952Z" fill="#312D2D"/>
<path d="M349.827 147.701V150.638C349.827 154.854 348.485 158.96 345.995 162.363V162.363C343.107 166.309 338.864 169.052 334.08 170.064L327.095 171.541" stroke="#545151" stroke-width="2"/>
<path d="M313.073 96.0587C308.631 96.0587 304.384 96.9471 300.483 98.5655C305.239 95.9526 310.64 94.4766 316.366 94.4766C335.458 94.4766 350.935 110.886 350.935 131.129C350.935 133.38 350.744 135.583 350.378 137.721H347.323C347.534 136.083 347.643 134.411 347.643 132.711C347.643 112.469 332.166 96.0587 313.073 96.0587Z" fill="#333B42"/>
<path d="M303.467 97.1129C306.68 96.0671 310.092 95.5042 313.628 95.5042C332.72 95.5042 348.197 111.914 348.197 132.157C348.197 133.856 348.088 135.529 347.877 137.167H350.468C350.775 135.203 350.935 133.186 350.935 131.129C350.935 110.886 335.458 94.4766 316.366 94.4766C311.806 94.4766 307.453 95.4124 303.467 97.1129Z" fill="#A1A6AF"/>
<ellipse cx="5.5442" cy="8.31629" rx="5.5442" ry="8.31629" transform="matrix(-1 0 0 1 353.707 132.177)" fill="#333B42"/>
<ellipse cx="5.5442" cy="8.31629" rx="5.5442" ry="8.31629" transform="matrix(-1 0 0 1 355.371 132.177)" fill="#AEB2BA"/>
<ellipse cx="3.32652" cy="4.98978" rx="3.32652" ry="4.98978" transform="matrix(-1 0 0 1 353.707 135.504)" fill="#E7EBF2"/>
<defs>
<linearGradient id="paint0_linear_875_273139" x1="314.357" y1="162.788" x2="307.617" y2="226.734" gradientUnits="userSpaceOnUse">
<stop stop-color="#DAE9F3"/>
<stop offset="1" stop-color="#6EA1C2"/>
</linearGradient>
<clipPath id="clip0_875_273139">
<rect width="20" height="20" fill="white" transform="translate(411 122)"/>
</clipPath>
<clipPath id="clip1_875_273139">
<rect width="20" height="20" fill="white" transform="translate(235 117)"/>
</clipPath>
</defs>
</svg>
