<svg width="8" height="8" viewBox="0 0 8 8" fill="none" xmlns="http://www.w3.org/2000/svg">
    <path d="M6.5 4.99902C7.3284 4.99902 8 5.67059 8 6.49902C8 7.32742 7.3284 7.99902 6.5 7.99902C5.67157 7.99902 5 7.32742 5 6.49902C5 5.67059 5.67157 4.99902 6.5 4.99902ZM1.5 4.99902C2.32843 4.99902 3 5.67059 3 6.49902C3 7.32742 2.32843 7.99902 1.5 7.99902C0.67157 7.99902 0 7.32742 0 6.49902C0 5.67059 0.67157 4.99902 1.5 4.99902Z"/>
    <path d="M8 1.49902C8 0.670593 7.3284 -0.000976562 6.5 -0.000976562C5.6716 -0.000976562 5 0.670593 5 1.49902C5 2.32742 5.6716 2.99902 6.5 2.99902C7.3284 2.99902 8 2.32742 8 1.49902Z"/>
</svg>
